<svg xmlns="http://www.w3.org/2000/svg" viewBox="0 0 218.37 49.96"><defs><style>.cls-1{fill:#000000;}.cls-1,.cls-2,.cls-3{stroke:#231815;stroke-linejoin:round;stroke-width:0.75px;}.cls-2{fill:none;}.cls-3{fill:#fff;}</style></defs><g id="图层_2" data-name="图层 2"><g id="图层_1-2" data-name="图层 1"><polygon class="cls-1" points="218 39.14 215.78 49.58 208.69 44.69 210.9 34.25 218 39.14"/><polygon class="cls-1" points="202.5 38.87 195.41 33.98 210.9 34.25 218 39.14 202.5 38.87"/><polygon class="cls-1" points="204.73 8.98 202.5 38.87 195.41 33.98 197.64 4.09 204.73 8.98"/><polygon class="cls-1" points="215.78 49.58 208.69 44.69 181.38 44.21 181.34 44.18 165.78 43.94 173.6 48.83 188.03 49.06 188.08 49.1 215.78 49.58"/><polygon class="cls-1" points="172.87 48.83 165.78 43.94 165.14 37.21 172.23 42.11 172.87 48.83"/><polygon class="cls-1" points="187.66 40.05 180.57 35.16 182.9 3.83 189.99 8.72 187.66 40.05"/><polygon class="cls-1" points="189.99 8.72 182.9 3.83 197.64 4.09 204.73 8.98 189.99 8.72"/><polygon class="cls-1" points="164.2 41.97 162.72 48.66 155.63 43.76 157.11 37.07 164.2 41.97"/><polygon class="cls-1" points="172.23 42.11 164.2 41.97 157.11 37.07 165.14 37.21 172.23 42.11"/><polygon class="cls-1" points="166.85 30.94 159.76 26.05 163.95 26.12 171.04 31.01 166.85 30.94"/><polygon class="cls-1" points="181.33 8.57 187.66 40.05 180.57 35.16 174.24 3.68 181.33 8.57"/><path class="cls-2" d="M171,31,164,26.12c-.17-3.12-.64-9.14-.93-13.8l7.09,4.89C170.4,21.87,170.87,27.89,171,31Z"/><polygon class="cls-1" points="162.72 48.66 148.26 48.4 141.17 43.51 155.63 43.76 162.72 48.66"/><path class="cls-1" d="M169.77,17.21c-.91,4.46-1.91,9.45-2.92,13.73l-7.09-4.89c1-4.28,2-9.27,2.92-13.74Z"/><polygon class="cls-3" points="170.12 17.21 169.77 17.21 162.68 12.31 163.02 12.32 170.12 17.21"/><polygon class="cls-1" points="148.26 48.4 141.17 43.51 143.49 36.03 150.58 40.92 148.26 48.4"/><polygon class="cls-1" points="160.73 8.21 153.64 3.32 174.24 3.68 181.33 8.57 160.73 8.21"/><polygon class="cls-1" points="152.69 34.14 145.6 29.25 153.64 3.32 160.73 8.21 152.69 34.14"/><path class="cls-1" d="M145.6,29.24,131.31,29c-.51,2.94-1.36,5.16-4.06,5.11a2.51,2.51,0,0,1-1.4-.42l7.09,4.9a2.51,2.51,0,0,0,1.4.42c2.7,0,3.55-2.18,4.06-5.12l14.29.25Z"/><path class="cls-1" d="M143.49,36a15.18,15.18,0,0,1-9.28,7.28l-15.37-.22,7.09,4.9,15.37.21a15.15,15.15,0,0,0,9.28-7.28Z"/><path class="cls-1" d="M148,9.74c4.58,3.16,5.89,8.21,5.81,12.29l-7.1-4.9c.09-4.08-1.22-9.12-5.8-12.28Z"/><path class="cls-3" d="M115.25,41.29a15.07,15.07,0,0,0,3.59,1.8l7.09,4.9a15.09,15.09,0,0,1-3.59-1.81Z"/><polygon class="cls-1" points="153.76 22.03 139.19 21.77 132.1 16.88 146.66 17.13 153.76 22.03"/><path class="cls-1" d="M130.68,12.33l7.1,4.9c1,.72,1.41,2.27,1.41,4.54l-7.09-4.89C132.1,14.61,131.73,13.05,130.68,12.33Z"/><path class="cls-1" d="M137.78,17.23a2.9,2.9,0,0,0-1.62-.46c-2.86-.05-4.23,3-4.85,11.23-.45,6,0,9.46,1.63,10.59l-7.09-4.9c-1.63-1.12-2.08-4.53-1.63-10.59.62-8.23,2-11.27,4.85-11.22a2.84,2.84,0,0,1,1.61.45Z"/><path class="cls-1" d="M122.34,46.18l-7.09-4.89a14.86,14.86,0,0,1-5.89-9.22L116.45,37A14.81,14.81,0,0,0,122.34,46.18Z"/><polygon class="cls-1" points="116.45 36.96 115.64 47.83 108.55 42.94 109.36 32.07 116.45 36.96"/><polygon class="cls-1" points="115.64 47.83 100.89 47.58 93.8 42.68 108.55 42.94 115.64 47.83"/><path class="cls-1" d="M140.86,4.85,148,9.74c-2.56-1.77-6.15-2.94-11.09-3-10.24-.18-16.24,4.94-19.07,12.2L110.7,14c2.83-7.26,8.83-12.37,19.07-12.19C134.71,1.9,138.3,3.08,140.86,4.85Z"/><polygon class="cls-1" points="118.64 7.48 117.79 18.91 110.7 14.01 111.55 2.58 118.64 7.48"/><polygon class="cls-1" points="100.89 47.58 93.8 42.68 96.8 2.33 103.89 7.22 100.89 47.58"/><polygon class="cls-1" points="101.54 22.54 100.77 32.9 93.68 28 94.45 17.64 101.54 22.54"/><polygon class="cls-1" points="86.32 32.65 85.23 47.28 78.14 42.39 79.22 27.75 86.32 32.65"/><polygon class="cls-1" points="100.77 32.9 86.32 32.65 79.22 27.75 93.68 28 100.77 32.9"/><polygon class="cls-1" points="103.72 7.2 102.96 17.44 95.87 12.54 96.63 2.31 103.72 7.2"/><polygon class="cls-1" points="85.23 47.28 70.77 47.03 63.68 42.14 78.14 42.39 85.23 47.28"/><polygon class="cls-1" points="94.45 17.64 87.44 17.52 87.47 17.17 80.38 12.27 80 17.39 87.09 22.29 101.54 22.54 94.45 17.64"/><polygon class="cls-1" points="102.96 17.44 87.47 17.17 80.38 12.27 95.87 12.54 102.96 17.44"/><polygon class="cls-1" points="70.77 47.03 63.68 42.14 65.11 29.5 72.2 34.4 70.77 47.03"/><polygon class="cls-1" points="118.64 7.48 110.99 2.58 96.69 2.35 96.63 2.31 68.25 1.81 75.34 6.71 102.67 7.18 102.73 7.22 118.64 7.48"/><polygon class="cls-1" points="73.65 21.61 66.56 16.71 68.25 1.81 75.34 6.71 73.65 21.61"/><path class="cls-3" d="M51.1,37.13,44,32.24a3.43,3.43,0,0,0,1.93.55L53,37.68A3.38,3.38,0,0,1,51.1,37.13Z"/><path class="cls-1" d="M66.67,8.42c4.26,2.94,6.46,7.69,7,13.19l-7.09-4.9c-.52-5.5-2.73-10.25-7-13.19Z"/><path class="cls-1" d="M49.66,11.08,56.75,16c1.77,1.23,1.94,4.44,1.52,10-.61,8.18-1.62,11.75-5.24,11.68l-7.09-4.89c3.62.06,4.63-3.51,5.24-11.69C51.6,15.51,51.43,12.3,49.66,11.08Z"/><path class="cls-1" d="M56.75,16a3.84,3.84,0,0,0-2.11-.58c-3.5-.06-4.66,3.1-5.22,10.63-.45,6.12-.22,9.79,1.68,11.11L44,32.24c-1.91-1.32-2.13-5-1.68-11.12.56-7.52,1.72-10.68,5.22-10.62a3.68,3.68,0,0,1,2.11.58Z"/><polygon class="cls-1" points="22.99 35.63 15.89 30.74 27.68 30.94 34.77 35.84 22.99 35.63"/><path class="cls-1" d="M59.58,3.52l7.09,4.9A19.73,19.73,0,0,0,55.62,5.27C41.45,5,34.85,14.16,34,26a28.84,28.84,0,0,0,.8,9.85l-7.09-4.9a28.81,28.81,0,0,1-.8-9.85C27.76,9.27,34.36.13,48.53.38A19.73,19.73,0,0,1,59.58,3.52Z"/><path class="cls-1" d="M65.11,29.5c-2,6-5.86,10.56-12.5,12.42L37.28,41.6.38,41l7.09,4.9,36.9.64,15.33.32C66.34,45,70.24,40.38,72.2,34.4Z"/><polygon class="cls-1" points="25.21 5.75 22.99 35.63 15.89 30.74 18.12 0.86 25.21 5.75"/><polygon class="cls-1" points="7.47 45.85 0.38 40.95 3.38 0.6 10.47 5.49 7.47 45.85"/><polygon class="cls-1" points="10.47 5.49 3.38 0.6 18.12 0.86 25.21 5.75 10.47 5.49"/></g></g></svg>