<svg xmlns="http://www.w3.org/2000/svg" viewBox="0 0 233.66 157.5"><defs><style>.cls-1{fill:none;stroke:#231815;stroke-miterlimit:10;stroke-width:10px;}.cls-2{fill:#231815;}</style></defs><g id="图层_2" data-name="图层 2"><g id="图层_1-2" data-name="图层 1"><path class="cls-1" d="M218.63,142.48V51.15a.37.37,0,0,0-.19-.33L153.63,15.07a.39.39,0,0,0-.18,0H15.4a.37.37,0,0,0-.18.7L78.84,50.82a.37.37,0,0,1,.19.33v91.33"/><line class="cls-1" x1="78.84" y1="50.82" x2="218.44" y2="50.82"/><line class="cls-1" x1="79.03" y1="96.65" x2="218.63" y2="96.65"/><circle class="cls-2" cx="15.03" cy="15.03" r="15.03"/><circle class="cls-2" cx="153.53" cy="15.03" r="15.03"/><circle class="cls-2" cx="78.84" cy="50.82" r="15.03"/><circle class="cls-2" cx="79.03" cy="96.65" r="15.03"/><path class="cls-2" d="M232.34,90.49a15,15,0,1,1-13-8.85,15.06,15.06,0,0,1,13,8.85"/><circle class="cls-2" cx="79.03" cy="142.48" r="15.03"/><circle class="cls-2" cx="218.44" cy="50.82" r="15.03"/><circle class="cls-2" cx="218.44" cy="142.48" r="15.03"/></g></g></svg>